<svg id="visual" viewBox="0 0 900 600" width="900" height="600" xmlns="http://www.w3.org/2000/svg" xmlns:xlink="http://www.w3.org/1999/xlink" version="1.1"><rect x="0" y="0" width="900" height="600" fill="#FFFFFF"></rect><path d="M0 405L129 438L257 416L386 428L514 373L643 422L771 359L900 386L900 601L771 601L643 601L514 601L386 601L257 601L129 601L0 601Z" fill="#ffffff"></path><path d="M0 474L129 422L257 449L386 401L514 459L643 472L771 409L900 418L900 601L771 601L643 601L514 601L386 601L257 601L129 601L0 601Z" fill="#dbe9fe"></path><path d="M0 486L129 484L257 511L386 506L514 482L643 480L771 472L900 456L900 601L771 601L643 601L514 601L386 601L257 601L129 601L0 601Z" fill="#b4d4fc"></path><path d="M0 494L129 540L257 517L386 487L514 531L643 533L771 487L900 512L900 601L771 601L643 601L514 601L386 601L257 601L129 601L0 601Z" fill="#89c0fa"></path><path d="M0 536L129 570L257 533L386 550L514 530L643 532L771 559L900 545L900 601L771 601L643 601L514 601L386 601L257 601L129 601L0 601Z" fill="#4facf7"></path></svg>