<svg id="visual" viewBox="0 0 900 600" width="900" height="600" xmlns="http://www.w3.org/2000/svg" xmlns:xlink="http://www.w3.org/1999/xlink" version="1.1"><rect x="0" y="0" width="900" height="600" fill="#FFFFFF"></rect><path d="M0 365L129 440L257 443L386 401L514 388L643 427L771 367L900 391L900 601L771 601L643 601L514 601L386 601L257 601L129 601L0 601Z" fill="#b6dcfb"></path><path d="M0 421L129 462L257 475L386 469L514 398L643 438L771 458L900 430L900 601L771 601L643 601L514 601L386 601L257 601L129 601L0 601Z" fill="#93cafd"></path><path d="M0 489L129 483L257 462L386 450L514 455L643 477L771 449L900 511L900 601L771 601L643 601L514 601L386 601L257 601L129 601L0 601Z" fill="#72b6ff"></path><path d="M0 538L129 538L257 520L386 482L514 523L643 530L771 494L900 520L900 601L771 601L643 601L514 601L386 601L257 601L129 601L0 601Z" fill="#55a2ff"></path><path d="M0 525L129 539L257 544L386 566L514 539L643 524L771 562L900 533L900 601L771 601L643 601L514 601L386 601L257 601L129 601L0 601Z" fill="#408cff"></path></svg>