<svg id="visual" viewBox="0 0 900 600" width="900" height="600" xmlns="http://www.w3.org/2000/svg" xmlns:xlink="http://www.w3.org/1999/xlink" version="1.1"><path d="M0 49L13.7 58C27.3 67 54.7 85 82 87C109.3 89 136.7 75 163.8 67C191 59 218 57 245.2 68C272.3 79 299.7 103 327 106C354.3 109 381.7 91 409 80C436.3 69 463.7 65 491 71C518.3 77 545.7 93 573 92C600.3 91 627.7 73 654.8 72C682 71 709 87 736.2 98C763.3 109 790.7 115 818 105C845.3 95 872.7 69 886.3 56L900 43L900 0L886.3 0C872.7 0 845.3 0 818 0C790.7 0 763.3 0 736.2 0C709 0 682 0 654.8 0C627.7 0 600.3 0 573 0C545.7 0 518.3 0 491 0C463.7 0 436.3 0 409 0C381.7 0 354.3 0 327 0C299.7 0 272.3 0 245.2 0C218 0 191 0 163.8 0C136.7 0 109.3 0 82 0C54.7 0 27.3 0 13.7 0L0 0Z" fill="#4a05b5"></path><path d="M0 247L13.7 250C27.3 253 54.7 259 82 259C109.3 259 136.7 253 163.8 243C191 233 218 219 245.2 231C272.3 243 299.7 281 327 290C354.3 299 381.7 279 409 263C436.3 247 463.7 235 491 230C518.3 225 545.7 227 573 233C600.3 239 627.7 249 654.8 269C682 289 709 319 736.2 319C763.3 319 790.7 289 818 254C845.3 219 872.7 179 886.3 159L900 139L900 41L886.3 54C872.7 67 845.3 93 818 103C790.7 113 763.3 107 736.2 96C709 85 682 69 654.8 70C627.7 71 600.3 89 573 90C545.7 91 518.3 75 491 69C463.7 63 436.3 67 409 78C381.7 89 354.3 107 327 104C299.7 101 272.3 77 245.2 66C218 55 191 57 163.8 65C136.7 73 109.3 87 82 85C54.7 83 27.3 65 13.7 56L0 47Z" fill="#5704d6"></path><path d="M0 373L13.7 379C27.3 385 54.7 397 82 402C109.3 407 136.7 405 163.8 392C191 379 218 355 245.2 358C272.3 361 299.7 391 327 403C354.3 415 381.7 409 409 401C436.3 393 463.7 383 491 370C518.3 357 545.7 341 573 348C600.3 355 627.7 385 654.8 400C682 415 709 415 736.2 398C763.3 381 790.7 347 818 320C845.3 293 872.7 273 886.3 263L900 253L900 137L886.3 157C872.7 177 845.3 217 818 252C790.7 287 763.3 317 736.2 317C709 317 682 287 654.8 267C627.7 247 600.3 237 573 231C545.7 225 518.3 223 491 228C463.7 233 436.3 245 409 261C381.7 277 354.3 297 327 288C299.7 279 272.3 241 245.2 229C218 217 191 231 163.8 241C136.7 251 109.3 257 82 257C54.7 257 27.3 251 13.7 248L0 245Z" fill="#6503f7"></path><path d="M0 409L13.7 425C27.3 441 54.7 473 82 484C109.3 495 136.7 485 163.8 472C191 459 218 443 245.2 443C272.3 443 299.7 459 327 464C354.3 469 381.7 463 409 458C436.3 453 463.7 449 491 440C518.3 431 545.7 417 573 421C600.3 425 627.7 447 654.8 456C682 465 709 461 736.2 444C763.3 427 790.7 397 818 370C845.3 343 872.7 319 886.3 307L900 295L900 251L886.3 261C872.7 271 845.3 291 818 318C790.7 345 763.3 379 736.2 396C709 413 682 413 654.8 398C627.7 383 600.3 353 573 346C545.7 339 518.3 355 491 368C463.7 381 436.3 391 409 399C381.7 407 354.3 413 327 401C299.7 389 272.3 359 245.2 356C218 353 191 377 163.8 390C136.7 403 109.3 405 82 400C54.7 395 27.3 383 13.7 377L0 371Z" fill="#833ffa"></path><path d="M0 601L13.7 601C27.3 601 54.7 601 82 601C109.3 601 136.7 601 163.8 601C191 601 218 601 245.2 601C272.3 601 299.7 601 327 601C354.3 601 381.7 601 409 601C436.3 601 463.7 601 491 601C518.3 601 545.7 601 573 601C600.3 601 627.7 601 654.8 601C682 601 709 601 736.2 601C763.3 601 790.7 601 818 601C845.3 601 872.7 601 886.3 601L900 601L900 293L886.3 305C872.7 317 845.3 341 818 368C790.7 395 763.3 425 736.2 442C709 459 682 463 654.8 454C627.7 445 600.3 423 573 419C545.7 415 518.3 429 491 438C463.7 447 436.3 451 409 456C381.7 461 354.3 467 327 462C299.7 457 272.3 441 245.2 441C218 441 191 457 163.8 470C136.7 483 109.3 493 82 482C54.7 471 27.3 439 13.7 423L0 407Z" fill="#9c63fd"></path></svg>